<?xml version="1.0" encoding="UTF-8"?>
<svg id="Artwork" xmlns="http://www.w3.org/2000/svg" viewBox="0 0 591.15 100">
  <defs>
    <style>
      .cls-1 {
        fill: #fff;
        stroke-width: 0px;
      }
    </style>
  </defs>
  <path class="cls-1" d="M412,0h-64C338.06,0,330,8.06,330,18v64c0,9.94,8.06,18,18,18h64c9.94,0,18-8.06,18-18V18C430,8.06,421.94,0,412,0ZM396.19,72.74h-32.18V27.24h31.85v6.96h-23.73v11.77h20.15v6.83h-20.15v13h24.05v6.96Z"/>
  <g>
    <path class="cls-1" d="M192,0h-64C118.06,0,110,8.06,110,18v64c0,9.94,8.06,18,18,18h64c9.94,0,18-8.06,18-18V18C210,8.06,201.94,0,192,0ZM160.01,73.72c-12.54,0-23.34-9.43-23.34-23.73s10.79-23.73,23.34-23.73,23.34,9.36,23.34,23.73-10.79,23.73-23.34,23.73Z"/>
    <ellipse class="cls-1" cx="160.01" cy="50" rx="14.76" ry="16.77"/>
  </g>
  <path class="cls-1" d="M82,0H18C8.06,0,0,8.06,0,18v64C0,91.94,8.06,100,18,100h64c9.94,0,18-8.06,18-18V18C100,8.06,91.94,0,82,0ZM51.52,66.64c6.83,0,10.34-4.1,11.44-7.74h8.32c-1.37,7.09-7.74,14.82-19.96,14.82-13.07,0-22.49-9.04-22.49-23.73s10.27-23.73,22.49-23.73,18.53,7.67,19.96,14.82h-8.32c-1.1-3.64-4.62-7.74-11.44-7.74-8.12,0-14.04,6.05-14.04,16.64s5.92,16.64,14.04,16.64Z"/>
  <path class="cls-1" d="M487.36,2.92l-49.15,88.66c-2.1,3.78.64,8.42,4.96,8.42h98.3c4.32,0,7.06-4.64,4.96-8.42L497.29,2.92c-2.16-3.9-7.76-3.9-9.92,0Z"/>
  <rect class="cls-1" x="557.65" width="33.5" height="100" rx="5.5" ry="5.5"/>
  <g>
    <path class="cls-1" d="M267.36,34.2h-6.17v31.59h6.17c10.27,0,16.32-5.72,16.32-15.8s-6.05-15.8-16.32-15.8Z"/>
    <path class="cls-1" d="M302,0h-64C228.06,0,220,8.06,220,18v64c0,9.94,8.06,18,18,18h64c9.94,0,18-8.06,18-18V18C320,8.06,311.94,0,302,0ZM268.01,72.74h-14.95V27.24h14.95c13.65,0,23.92,9.1,23.92,22.75s-10.27,22.75-23.92,22.75Z"/>
  </g>
</svg>